<svg xmlns="http://www.w3.org/2000/svg" xmlns:xlink="http://www.w3.org/1999/xlink" fill="none" version="1.1" width="126" height="126" viewBox="0 0 126 126"><defs><clipPath id="master_svg0_0_784"><rect x="0" y="0" width="126" height="126" rx="0"/></clipPath></defs><g clip-path="url(#master_svg0_0_784)"><g><path d="M108.963,43.96150095367432Q105.176,34.818900953674316,98.1786,27.821400953674317Q91.1811,20.823980953674315,82.0385,17.036990953674316Q72.8959,13.250000953674316,63,13.250000953674316Q53.1041,13.250000953674316,43.9615,17.036990953674316Q34.8189,20.82399095367432,27.8214,27.821400953674317Q20.823990000000002,34.818900953674316,17.03699,43.96150095367432Q13.25,53.10410095367432,13.25,63.000000953674316Q13.25,72.89590095367431,17.03699,82.03850095367432Q20.82398,91.18110095367432,27.8214,98.17860095367432Q34.8189,105.17600095367432,43.9615,108.96300095367431Q53.1041,112.75000095367432,63,112.75000095367432Q72.8959,112.75000095367432,82.0385,108.96300095367431Q91.1811,105.17600095367432,98.1786,98.17860095367432Q105.176,91.18110095367432,108.963,82.03850095367432Q112.75,72.89590095367431,112.75,63.000000953674316Q112.75,53.10410095367432,108.963,43.96150095367432ZM80.1251,21.656390953674318Q88.3488,25.062780953674316,94.643,31.357000953674316Q100.9372,37.651100953674316,104.3436,45.87490095367431Q107.75,54.09870095367432,107.75,63.000000953674316Q107.75,71.90140095367431,104.3436,80.12510095367432Q100.9372,88.34880095367431,94.643,94.64300095367432Q88.3488,100.93720095367432,80.1251,104.34360095367431Q71.9014,107.75000095367432,63,107.75000095367432Q54.0986,107.75000095367432,45.8749,104.34360095367431Q37.6511,100.93720095367432,31.357,94.64300095367432Q25.06277,88.34880095367431,21.656390000000002,80.12510095367432Q18.25,71.90130095367431,18.25,63.000000953674316Q18.25,54.09870095367432,21.656390000000002,45.87490095367431Q25.06278,37.65120095367432,31.357,31.357000953674316Q37.6512,25.062790953674316,45.8749,21.656390953674318Q54.0987,18.250000953674316,63,18.250000953674316Q71.90129999999999,18.250000953674316,80.1251,21.656390953674318Z" fill-rule="evenodd" fill="#FF3811" fill-opacity="1"/></g><g><path d="M55.3266,42.755022747802734L55.325630000000004,42.75448274780273Q54.24864,42.15600274780273,53.0309,42.190222747802736Q51.885826,42.22240274780273,50.89218,42.805482747802735Q49.89765,43.389072747802736,49.31154,44.37385274780274Q48.6875,45.42237374780274,48.6875,46.656752747802734L48.6875,79.34237274780273Q48.6871,80.52997274780273,49.27626,81.56097274780274Q49.86542,82.59207274780273,50.88869,83.19457274780274Q51.911958,83.79717274780273,53.0994,83.81227274780274Q54.28683,83.82737274780274,55.325919999999996,83.25057274780274L84.7393,66.90867274780274Q85.80510000000001,66.31807274780273,86.42349999999999,65.26827274780274Q87.0419,64.21847274780274,87.0419,62.99997274780273Q87.0419,61.781572747802734,86.42349999999999,60.73177274780274Q85.80510000000001,59.68197274780273,84.7414,59.09247274780273L55.3266,42.755022747802734ZM53.6875,47.564102747802735L53.6875,78.44097274780273L81.47919999999999,63.00007274780273L53.6875,47.564102747802735Z" fill-rule="evenodd" fill="#FF3811" fill-opacity="1"/></g></g></svg>