<svg xmlns="http://www.w3.org/2000/svg" xmlns:xlink="http://www.w3.org/1999/xlink" fill="none" version="1.1" width="30" height="30" viewBox="0 0 30 30"><defs><clipPath id="master_svg0_0_955"><rect x="0" y="0" width="30" height="30" rx="0"/></clipPath></defs><g clip-path="url(#master_svg0_0_955)"><g><path d="M17.7172,2.975946Q15.51195,2.0625,13.125,2.0625L12.65625,2.0625L10.3125,2.0625L7.03125,2.0625Q6.138402,2.0625,5.506701,2.694201Q4.875,3.325902,4.875,4.21875L4.875,25.7813Q4.875,26.6741,5.506701,27.3058Q6.138401,27.9375,7.03125,27.9375L22.9688,27.9375Q23.8616,27.9375,24.4933,27.3058Q25.125,26.6741,25.125,25.7813L25.125,14.0625Q25.125,11.67556,24.2116,9.4703Q23.2981,7.26505,21.610300000000002,5.5772200000000005Q19.9225,3.8893899999999997,17.7172,2.975946ZM22.9776,10.43188Q22.9057,10.23732,22.8257,10.044319999999999Q22.0265,8.11473,20.549599999999998,6.63788Q19.0728,5.16103,17.1432,4.36176Q16.950200000000002,4.28183,16.7556,4.20989Q17.625,5.440519999999999,17.625,7.03125L17.625,8.90625Q17.625,9.17808,17.8172,9.37029Q18.0094,9.5625,18.2812,9.5625L20.1562,9.5625Q21.747,9.5625,22.9776,10.43188ZM12.65625,3.5625L10.3125,3.5625L10.31221,3.5625L7.03125,3.5625Q6.75972,3.5625,6.567361,3.754861Q6.375,3.9472199999999997,6.375,4.21875L6.375,25.7813Q6.375,26.0528,6.567361,26.2451Q6.75972,26.4375,7.03125,26.4375L22.9688,26.4375Q23.2403,26.4375,23.4326,26.2451Q23.625,26.0528,23.625,25.7813L23.625,14.5313Q23.625,13.0944,22.609,12.07847Q21.5931,11.0625,20.1562,11.0625L18.2812,11.0625Q17.3881,11.0625,16.7566,10.43095Q16.125,9.7994,16.125,8.90625L16.125,7.03125Q16.125,5.59445,15.10903,4.57847Q14.09305,3.5625,12.65625,3.5625ZM18,15L18,21.5625Q18,21.6364,18.014400000000002,21.7088Q18.0288,21.7813,18.0571,21.8495Q18.0854,21.9178,18.1264,21.9792Q18.1674,22.0406,18.2197,22.0928Q18.271900000000002,22.1451,18.3333,22.1861Q18.3947,22.2271,18.463,22.2554Q18.5312,22.2837,18.6037,22.2981Q18.676099999999998,22.3125,18.75,22.3125Q18.823900000000002,22.3125,18.8963,22.2981Q18.9688,22.2837,19.037,22.2554Q19.1053,22.2271,19.1667,22.1861Q19.228099999999998,22.1451,19.2803,22.0928Q19.3326,22.0406,19.3736,21.9792Q19.4146,21.9178,19.4429,21.8495Q19.4712,21.7813,19.485599999999998,21.7088Q19.5,21.6364,19.5,21.5625L19.5,15Q19.5,14.9261,19.485599999999998,14.8537Q19.4712,14.7812,19.4429,14.713Q19.4146,14.6447,19.3736,14.5833Q19.3326,14.5219,19.2803,14.4697Q19.228099999999998,14.4174,19.1667,14.3764Q19.1053,14.3354,19.037,14.3071Q18.9688,14.2788,18.8963,14.2644Q18.823900000000002,14.25,18.75,14.25Q18.676099999999998,14.25,18.6037,14.2644Q18.5312,14.2788,18.463,14.3071Q18.3947,14.3354,18.3333,14.3764Q18.271900000000002,14.4174,18.2197,14.4697Q18.1674,14.5219,18.1264,14.5833Q18.0854,14.6447,18.0571,14.713Q18.0288,14.7812,18.014400000000002,14.8537Q18,14.9261,18,15ZM14.25,17.8125L14.25,21.5625Q14.25,21.6364,14.26441,21.7088Q14.27882,21.7813,14.30709,21.8495Q14.33536,21.9178,14.3764,21.9792Q14.41744,22.0406,14.46967,22.0928Q14.5219,22.1451,14.58332,22.1861Q14.64474,22.2271,14.71299,22.2554Q14.78123,22.2837,14.85368,22.2981Q14.92613,22.3125,15,22.3125Q15.07387,22.3125,15.14632,22.2981Q15.21877,22.2837,15.28701,22.2554Q15.35526,22.2271,15.41668,22.1861Q15.4781,22.1451,15.53033,22.0928Q15.58256,22.0406,15.6236,21.9792Q15.6646,21.9178,15.6929,21.8495Q15.7212,21.7813,15.7356,21.7088Q15.75,21.6364,15.75,21.5625L15.75,17.8125Q15.75,17.738599999999998,15.7356,17.6662Q15.7212,17.5937,15.6929,17.5255Q15.6646,17.4572,15.6236,17.3958Q15.58256,17.334400000000002,15.53033,17.2822Q15.4781,17.2299,15.41668,17.1889Q15.35526,17.1479,15.28701,17.1196Q15.21877,17.0913,15.14632,17.076900000000002Q15.07387,17.0625,15,17.0625Q14.92613,17.0625,14.85368,17.076900000000002Q14.78123,17.0913,14.71299,17.1196Q14.64474,17.1479,14.58332,17.1889Q14.5219,17.2299,14.46967,17.2822Q14.41744,17.334400000000002,14.3764,17.3958Q14.33536,17.4572,14.30709,17.5255Q14.27882,17.5937,14.26441,17.6662Q14.25,17.738599999999998,14.25,17.8125ZM10.5,20.625L10.5,21.5625Q10.5,21.6364,10.51441,21.7088Q10.52882,21.7813,10.557089999999999,21.8495Q10.58536,21.9178,10.6264,21.9792Q10.66744,22.0406,10.71967,22.0928Q10.771899999999999,22.1451,10.83332,22.1861Q10.894739999999999,22.2271,10.96299,22.2554Q11.03123,22.2837,11.10368,22.2981Q11.17613,22.3125,11.25,22.3125Q11.32387,22.3125,11.39632,22.2981Q11.46877,22.2837,11.53701,22.2554Q11.605260000000001,22.2271,11.66668,22.1861Q11.728100000000001,22.1451,11.78033,22.0928Q11.83256,22.0406,11.8736,21.9792Q11.91464,21.9178,11.942910000000001,21.8495Q11.97118,21.7813,11.98559,21.7088Q12,21.6364,12,21.5625L12,20.625Q12,20.5511,11.98559,20.4787Q11.97118,20.4062,11.942910000000001,20.338Q11.91464,20.2697,11.8736,20.2083Q11.83256,20.1469,11.78033,20.0947Q11.728100000000001,20.0424,11.66668,20.0014Q11.605260000000001,19.9604,11.53701,19.9321Q11.46877,19.9038,11.39632,19.8894Q11.32387,19.875,11.25,19.875Q11.17613,19.875,11.10368,19.8894Q11.03123,19.9038,10.96299,19.9321Q10.894739999999999,19.9604,10.83332,20.0014Q10.771899999999999,20.0424,10.71967,20.0947Q10.66744,20.1469,10.6264,20.2083Q10.58536,20.2697,10.557089999999999,20.338Q10.52882,20.4062,10.51441,20.4787Q10.5,20.5511,10.5,20.625Z" fill-rule="evenodd" fill="#FFFFFF" fill-opacity="1"/></g></g></svg>