<svg xmlns="http://www.w3.org/2000/svg" xmlns:xlink="http://www.w3.org/1999/xlink" fill="none" version="1.1" width="24" height="24" viewBox="0 0 24 24"><defs><clipPath id="master_svg0_0_570"><rect x="0" y="0" width="24" height="24" rx="0"/></clipPath></defs><g clip-path="url(#master_svg0_0_570)"><g><path d="M13.28079,4.7201319999999996L13.28033,4.71967Q13.2769,4.716237,13.27342,4.7128499999999995Q13.16838,4.610495,13.03252,4.555247Q12.89666,4.5,12.75,4.5Q12.60082,4.5,12.46299,4.55709Q12.32516,4.614181,12.21967,4.71967L12.21924,4.720099Q12.216239999999999,4.723105,12.21327,4.726144L12.21285,4.726579Q12.11049,4.831619,12.055250000000001,4.967478Q12,5.103337,12,5.25Q12,5.399184,12.057089999999999,5.537013Q12.114180000000001,5.674841,12.21967,5.78033L17.6893,11.25L4.5,11.25Q4.4261315,11.25,4.353682,11.26441Q4.281233,11.27882,4.212987,11.307089999999999Q4.144742,11.33536,4.083322,11.3764Q4.021903,11.41744,3.96967,11.46967Q3.917437,11.521899999999999,3.876398,11.58332Q3.835359,11.644739999999999,3.80709,11.71299Q3.778822,11.78123,3.764411,11.85368Q3.75,11.92613,3.75,12Q3.75,12.07387,3.764411,12.14632Q3.778822,12.21877,3.80709,12.28701Q3.835359,12.355260000000001,3.876398,12.41668Q3.917437,12.478100000000001,3.96967,12.53033Q4.021903,12.58256,4.083322,12.6236Q4.144742,12.66464,4.212987,12.692910000000001Q4.281233,12.72118,4.353682,12.73559Q4.4261315,12.75,4.5,12.75L17.6893,12.75L12.22006,18.2193L12.21967,18.2197Q12.114180000000001,18.325200000000002,12.057089999999999,18.463Q12,18.6008,12,18.75Q12,18.768,12.000869999999999,18.786Q12.00758,18.9257,12.06419,19.0536Q12.12079,19.1814,12.21967,19.2803Q12.32516,19.3858,12.46299,19.4429Q12.60082,19.5,12.75,19.5Q12.76942,19.5,12.78881,19.499000000000002Q12.92774,19.491799999999998,13.05485,19.435299999999998Q13.18196,19.378700000000002,13.28033,19.2803L13.28096,19.2797L20.029899999999998,12.530719999999999L20.0303,12.53033Q20.1358,12.42484,20.1929,12.28701Q20.25,12.149180000000001,20.25,12Q20.25,11.850819999999999,20.1929,11.71299Q20.1358,11.57516,20.0303,11.46967L13.28079,4.7201319999999996Z" fill-rule="evenodd" fill="#FF3811" fill-opacity="1"/></g></g></svg>