<svg xmlns="http://www.w3.org/2000/svg" xmlns:xlink="http://www.w3.org/1999/xlink" fill="none" version="1.1" width="36.293548583984375" height="40.982666015625" viewBox="0 0 36.293548583984375 40.982666015625"><g><g><g><g><path d="M18.146798252868653,7.250338554382324C16.064038252868652,7.250338554382324,14.369498252868652,8.944878554382324,14.369498252868652,11.027638554382325C14.369498252868652,13.110398554382325,16.064038252868652,14.804938554382325,18.146798252868653,14.804938554382325C20.229558252868653,14.804938554382325,21.924108252868653,13.110398554382325,21.924108252868653,11.027638554382325C21.924108252868653,8.944878554382324,20.229558252868653,7.250338554382324,18.146798252868653,7.250338554382324Z" fill="#FFFFFF" fill-opacity="1"/></g></g></g><g><g><g><path d="M30.453793369753612,30.37030772338867C28.53679336975361,29.82424572338867,26.25949336975361,29.421142723388673,23.78119336975361,29.178447723388672C21.37809336975361,32.806547723388675,19.30209336975361,35.44016772338867,19.09609336975361,35.69991772338867C18.86629336975361,35.989677723388674,18.51659336975361,36.15856772338867,18.14679336975361,36.15856772338867C17.77699336975361,36.15856772338867,17.42739336975361,35.989677723388674,17.197593369753612,35.69991772338867C16.99159336975361,35.44016772338867,14.91549336975361,32.80662772338867,12.51249336975361,29.178447723388672C10.034093369753611,29.421142723388673,7.7568733697536105,29.82424572338867,5.83988336975361,30.37030772338867C1.9648433697536107,31.474207723388673,-0.000006630246389249805,33.01393772338867,-0.000006630246389249805,34.946857723388675C-0.000006630246389249805,36.879767723388674,1.9648433697536107,38.41950772338867,5.83988336975361,39.52344772338867C9.143563369753611,40.46454772338867,13.51409336975361,40.98274772338867,18.14679336975361,40.98274772338867C22.77959336975361,40.98274772338867,27.15009336975361,40.46444772338867,30.453693369753612,39.52344772338867C34.32869336975361,38.41958772338867,36.29359336975361,36.879857723388675,36.29359336975361,34.94693772338867C36.29359336975361,33.01401772338867,34.32879336975361,31.474207723388673,30.453793369753612,30.37030772338867Z" fill="#FFFFFF" fill-opacity="1"/></g></g></g><g><g><g><path d="M18.14694695968628,-0.000027603873604675755C12.06631695968628,-0.000027603873604675755,7.119246959686279,4.946882396126395,7.119246959686279,11.027672396126395C7.119246959686279,14.272672396126396,9.17214695968628,19.287972396126396,13.05606695968628,25.531172396126394C15.028526959686278,28.701772396126394,17.01515695968628,31.443872396126395,18.14684695968628,32.953072396126394C19.281446959686278,31.439572396126394,21.275646959686277,28.686772396126397,23.25014695968628,25.511072396126394C27.125846959686278,19.277372396126395,29.17444695968628,14.269072396126395,29.17444695968628,11.027672396126395C29.17444695968628,4.946882396126395,24.22744695968628,-0.000027603873604675755,18.14694695968628,-0.000027603873604675755ZM18.14694695968628,17.228372396126396C14.72788695968628,17.228372396126396,11.94617695968628,14.446672396126395,11.94617695968628,11.027672396126395C11.94617695968628,7.6085223961263955,14.72788695968628,4.826902396126395,18.14694695968628,4.826902396126395C21.56594695968628,4.826902396126395,24.34764695968628,7.6085223961263955,24.34764695968628,11.027672396126395C24.34764695968628,14.446772396126395,21.56594695968628,17.228372396126396,18.14694695968628,17.228372396126396Z" fill="#FF3811" fill-opacity="1"/></g></g></g></g></svg>