<svg xmlns="http://www.w3.org/2000/svg" xmlns:xlink="http://www.w3.org/1999/xlink" fill="none" version="1.1" width="46.34416961669922" height="40.732177734375" viewBox="0 0 46.34416961669922 40.732177734375"><g><g><g><path d="M36.74949424133301,-0.000027603873604675755C36.74949424133301,-0.000027603873604675755,25.88756424133301,-0.000027603873604675755,25.88756424133301,-0.000027603873604675755C20.647504241333007,-0.000027603873604675755,16.383394241333008,4.264082396126395,16.383394241333008,9.504142396126396C16.383394241333008,14.284072396126396,19.930264241333006,18.251272396126396,24.52982424133301,18.911572396126395C24.52982424133301,18.911572396126395,24.52982424133301,23.081572396126397,24.52982424133301,23.081572396126397C24.52982424133301,23.630372396126397,24.859934241333008,24.126372396126396,25.367824241333008,24.335772396126394C25.86864424133301,24.544772396126394,26.456094241333005,24.432772396126396,26.847594241333006,24.041472396126395C26.847594241333006,24.041472396126395,31.880694241333007,19.008272396126394,31.880694241333007,19.008272396126394C31.880694241333007,19.008272396126394,36.74949424133301,19.008272396126394,36.74949424133301,19.008272396126394C41.989494241333006,19.008272396126394,46.34419424133301,14.744172396126395,46.34419424133301,9.504142396126396C46.34419424133301,4.264082396126395,41.989494241333006,-0.000027603873604675755,36.74949424133301,-0.000027603873604675755C36.74949424133301,-0.000027603873604675755,36.74949424133301,-0.000027603873604675755,36.74949424133301,-0.000027603873604675755ZM25.88756424133301,10.861672396126396C25.137544241333007,10.861672396126396,24.52982424133301,10.253772396126395,24.52982424133301,9.503962396126395C24.52982424133301,8.754122396126395,25.137544241333007,8.146222396126396,25.88756424133301,8.146222396126396C26.637394241333006,8.146222396126396,27.245294241333006,8.754122396126395,27.245294241333006,9.503962396126395C27.245294241333006,10.253772396126395,26.637394241333006,10.861672396126396,25.88756424133301,10.861672396126396ZM31.318494241333006,10.861672396126396C30.568494241333006,10.861672396126396,29.96079424133301,10.253772396126395,29.96079424133301,9.503962396126395C29.96079424133301,8.754122396126395,30.568494241333006,8.146222396126396,31.318494241333006,8.146222396126396C32.06839424133301,8.146222396126396,32.67629424133301,8.754122396126395,32.67629424133301,9.503962396126395C32.67629424133301,10.253772396126395,32.06839424133301,10.861672396126396,31.318494241333006,10.861672396126396ZM36.74949424133301,10.861672396126396C35.99949424133301,10.861672396126396,35.391694241333006,10.253772396126395,35.391694241333006,9.503962396126395C35.391694241333006,8.754122396126395,35.99949424133301,8.146222396126396,36.74949424133301,8.146222396126396C37.499294241333004,8.146222396126396,38.107194241333005,8.754122396126395,38.107194241333005,9.503962396126395C38.107194241333005,10.253772396126395,37.499294241333004,10.861672396126396,36.74949424133301,10.861672396126396Z" fill="#FF3811" fill-opacity="1"/></g><g><path d="M30.5039,40.73225076828003C32.7499,40.73225076828003,34.5771,38.90505076828003,34.5771,36.65895076828003C34.5771,36.65895076828003,34.5771,31.228050768280028,34.5771,31.228050768280028C34.5771,30.64335076828003,34.2032,30.12485076828003,33.6489,29.94055076828003C33.6489,29.94055076828003,25.5216,27.225050768280028,25.5216,27.225050768280028C25.1238,27.09115076828003,24.6889,27.15215076828003,24.3389,27.38285076828003C24.3389,27.38285076828003,20.8836,29.68595076828003,20.8836,29.68595076828003C17.224,27.94105076828003,12.8817,23.59865076828003,11.1367,19.93905076828003C11.1367,19.93905076828003,13.4398,16.48375076828003,13.4398,16.48375076828003C13.6718,16.134970768280027,13.7302,15.69877076828003,13.5976,15.301040768280028C13.5976,15.301040768280028,10.8821,7.1737097682800295,10.8821,7.1737097682800295C10.6979,6.6195717682800295,10.1794,6.245650768280029,9.59469,6.245650768280029C9.59469,6.245650768280029,4.07322,6.245650768280029,4.07322,6.245650768280029C1.82715,6.245650768280029,0,8.053710768280029,0,10.29977076828003C0,25.942950768280028,14.8607,40.73225076828003,30.5039,40.73225076828003C30.5039,40.73225076828003,30.5039,40.73225076828003,30.5039,40.73225076828003Z" fill="#FFFFFF" fill-opacity="1"/></g></g></g></svg>