<svg xmlns="http://www.w3.org/2000/svg" xmlns:xlink="http://www.w3.org/1999/xlink" fill="none" version="1.1" width="120" height="24" viewBox="0 0 120 24"><defs><clipPath id="master_svg0_0_262"><rect x="96" y="0" width="24" height="24" rx="0"/></clipPath><clipPath id="master_svg1_0_264"><rect x="72" y="0" width="24" height="24" rx="0"/></clipPath><clipPath id="master_svg2_0_266"><rect x="48" y="0" width="24" height="24" rx="0"/></clipPath><clipPath id="master_svg3_0_268"><rect x="24" y="0" width="24" height="24" rx="0"/></clipPath><clipPath id="master_svg4_0_270"><rect x="0" y="0" width="24" height="24" rx="0"/></clipPath></defs><g><g clip-path="url(#master_svg0_0_262)"><g><path d="M106.78800253364562,3.210000051498413C107.23600253364563,2.133000051498413,108.76398253364563,2.133000051498413,109.21198253364562,3.210000051498413C109.21198253364562,3.210000051498413,111.29398253364563,8.217000051498413,111.29398253364563,8.217000051498413C111.29398253364563,8.217000051498413,116.69798253364563,8.650000051498413,116.69798253364563,8.650000051498413C117.86198253364563,8.743000051498413,118.33398253364564,10.195000051498413,117.44698253364564,10.955000051498413C117.44698253364564,10.955000051498413,113.32998253364563,14.482050051498414,113.32998253364563,14.482050051498414C113.32998253364563,14.482050051498414,114.58698253364562,19.75495005149841,114.58698253364562,19.75495005149841C114.85798253364563,20.890950051498415,113.62298253364563,21.787950051498413,112.62698253364563,21.180050051498412C112.62698253364563,21.180050051498412,108.00000253364563,18.353950051498416,108.00000253364563,18.353950051498416C108.00000253364563,18.353950051498416,103.37300253364563,21.180050051498412,103.37300253364563,21.180050051498412C102.37700253364562,21.787950051498413,101.14200253364562,20.889950051498413,101.41300253364562,19.75495005149841C101.41300253364562,19.75495005149841,102.67000253364563,14.482050051498414,102.67000253364563,14.482050051498414C102.67000253364563,14.482050051498414,98.55299953364563,10.955000051498413,98.55299953364563,10.955000051498413C97.66599953364563,10.195000051498413,98.13799993364563,8.743000051498413,99.30200253364563,8.650000051498413C99.30200253364563,8.650000051498413,104.70600253364563,8.217000051498413,104.70600253364563,8.217000051498413C104.70600253364563,8.217000051498413,106.78800253364562,3.211000051498413,106.78800253364562,3.211000051498413C106.78800253364562,3.211000051498413,106.78800253364562,3.210000051498413,106.78800253364562,3.210000051498413Z" fill-rule="evenodd" fill="#FF912C" fill-opacity="1"/></g></g><g clip-path="url(#master_svg1_0_264)"><g><path d="M82.78800253364562,3.210000051498413C83.23600253364563,2.133000051498413,84.76398253364563,2.133000051498413,85.21198253364562,3.210000051498413C85.21198253364562,3.210000051498413,87.29398253364563,8.217000051498413,87.29398253364563,8.217000051498413C87.29398253364563,8.217000051498413,92.69798253364563,8.650000051498413,92.69798253364563,8.650000051498413C93.86198253364563,8.743000051498413,94.33398253364564,10.195000051498413,93.44698253364564,10.955000051498413C93.44698253364564,10.955000051498413,89.32998253364563,14.482050051498414,89.32998253364563,14.482050051498414C89.32998253364563,14.482050051498414,90.58698253364562,19.75495005149841,90.58698253364562,19.75495005149841C90.85798253364563,20.890950051498415,89.62298253364563,21.787950051498413,88.62698253364563,21.180050051498412C88.62698253364563,21.180050051498412,84.00000253364563,18.353950051498416,84.00000253364563,18.353950051498416C84.00000253364563,18.353950051498416,79.37300253364563,21.180050051498412,79.37300253364563,21.180050051498412C78.37700253364562,21.787950051498413,77.14200253364562,20.889950051498413,77.41300253364562,19.75495005149841C77.41300253364562,19.75495005149841,78.67000253364563,14.482050051498414,78.67000253364563,14.482050051498414C78.67000253364563,14.482050051498414,74.55299953364563,10.955000051498413,74.55299953364563,10.955000051498413C73.66599953364563,10.195000051498413,74.13799993364563,8.743000051498413,75.30200253364563,8.650000051498413C75.30200253364563,8.650000051498413,80.70600253364563,8.217000051498413,80.70600253364563,8.217000051498413C80.70600253364563,8.217000051498413,82.78800253364562,3.211000051498413,82.78800253364562,3.211000051498413C82.78800253364562,3.211000051498413,82.78800253364562,3.210000051498413,82.78800253364562,3.210000051498413Z" fill-rule="evenodd" fill="#FF912C" fill-opacity="1"/></g></g><g clip-path="url(#master_svg2_0_266)"><g><path d="M58.78800253364563,3.210000051498413C59.23600253364563,2.133000051498413,60.76398253364563,2.133000051498413,61.21198253364563,3.210000051498413C61.21198253364563,3.210000051498413,63.29398253364563,8.217000051498413,63.29398253364563,8.217000051498413C63.29398253364563,8.217000051498413,68.69798253364563,8.650000051498413,68.69798253364563,8.650000051498413C69.86198253364563,8.743000051498413,70.33398253364564,10.195000051498413,69.44698253364564,10.955000051498413C69.44698253364564,10.955000051498413,65.32998253364563,14.482050051498414,65.32998253364563,14.482050051498414C65.32998253364563,14.482050051498414,66.58698253364562,19.75495005149841,66.58698253364562,19.75495005149841C66.85798253364563,20.890950051498415,65.62298253364563,21.787950051498413,64.62698253364563,21.180050051498412C64.62698253364563,21.180050051498412,60.00000253364563,18.353950051498416,60.00000253364563,18.353950051498416C60.00000253364563,18.353950051498416,55.37300253364563,21.180050051498412,55.37300253364563,21.180050051498412C54.37700253364563,21.787950051498413,53.14200253364563,20.889950051498413,53.41300253364563,19.75495005149841C53.41300253364563,19.75495005149841,54.67000253364563,14.482050051498414,54.67000253364563,14.482050051498414C54.67000253364563,14.482050051498414,50.55299953364563,10.955000051498413,50.55299953364563,10.955000051498413C49.66599953364563,10.195000051498413,50.13799993364563,8.743000051498413,51.30200253364563,8.650000051498413C51.30200253364563,8.650000051498413,56.70600253364563,8.217000051498413,56.70600253364563,8.217000051498413C56.70600253364563,8.217000051498413,58.78800253364563,3.211000051498413,58.78800253364563,3.211000051498413C58.78800253364563,3.211000051498413,58.78800253364563,3.210000051498413,58.78800253364563,3.210000051498413Z" fill-rule="evenodd" fill="#FF912C" fill-opacity="1"/></g></g><g clip-path="url(#master_svg3_0_268)"><g><path d="M34.78800253364563,3.210000051498413C35.23600253364563,2.133000051498413,36.76398253364563,2.133000051498413,37.21198253364563,3.210000051498413C37.21198253364563,3.210000051498413,39.29398253364563,8.217000051498413,39.29398253364563,8.217000051498413C39.29398253364563,8.217000051498413,44.69798253364563,8.650000051498413,44.69798253364563,8.650000051498413C45.86198253364563,8.743000051498413,46.33398253364563,10.195000051498413,45.44698253364563,10.955000051498413C45.44698253364563,10.955000051498413,41.329982533645634,14.482050051498414,41.329982533645634,14.482050051498414C41.329982533645634,14.482050051498414,42.58698253364563,19.75495005149841,42.58698253364563,19.75495005149841C42.857982533645625,20.890950051498415,41.622982533645626,21.787950051498413,40.62698253364563,21.180050051498412C40.62698253364563,21.180050051498412,36.00000253364563,18.353950051498416,36.00000253364563,18.353950051498416C36.00000253364563,18.353950051498416,31.37300253364563,21.180050051498412,31.37300253364563,21.180050051498412C30.37700253364563,21.787950051498413,29.14200253364563,20.889950051498413,29.41300253364563,19.75495005149841C29.41300253364563,19.75495005149841,30.67000253364563,14.482050051498414,30.67000253364563,14.482050051498414C30.67000253364563,14.482050051498414,26.55299953364563,10.955000051498413,26.55299953364563,10.955000051498413C25.66599953364563,10.195000051498413,26.13799993364563,8.743000051498413,27.30200253364563,8.650000051498413C27.30200253364563,8.650000051498413,32.70600253364563,8.217000051498413,32.70600253364563,8.217000051498413C32.70600253364563,8.217000051498413,34.78800253364563,3.211000051498413,34.78800253364563,3.211000051498413C34.78800253364563,3.211000051498413,34.78800253364563,3.210000051498413,34.78800253364563,3.210000051498413Z" fill-rule="evenodd" fill="#FF912C" fill-opacity="1"/></g></g><g clip-path="url(#master_svg4_0_270)"><g><path d="M10.78800253364563,3.210000051498413C11.23600253364563,2.133000051498413,12.76398253364563,2.133000051498413,13.21198253364563,3.210000051498413C13.21198253364563,3.210000051498413,15.29398253364563,8.217000051498413,15.29398253364563,8.217000051498413C15.29398253364563,8.217000051498413,20.69798253364563,8.650000051498413,20.69798253364563,8.650000051498413C21.86198253364563,8.743000051498413,22.33398253364563,10.195000051498413,21.44698253364563,10.955000051498413C21.44698253364563,10.955000051498413,17.32998253364563,14.482050051498414,17.32998253364563,14.482050051498414C17.32998253364563,14.482050051498414,18.58698253364563,19.75495005149841,18.58698253364563,19.75495005149841C18.85798253364563,20.890950051498415,17.62298253364563,21.787950051498413,16.62698253364563,21.180050051498412C16.62698253364563,21.180050051498412,12.00000253364563,18.353950051498416,12.00000253364563,18.353950051498416C12.00000253364563,18.353950051498416,7.3730025336456295,21.180050051498412,7.3730025336456295,21.180050051498412C6.37700253364563,21.787950051498413,5.1420025336456305,20.889950051498413,5.4130025336456296,19.75495005149841C5.4130025336456296,19.75495005149841,6.67000253364563,14.482050051498414,6.67000253364563,14.482050051498414C6.67000253364563,14.482050051498414,2.5529995336456297,10.955000051498413,2.5529995336456297,10.955000051498413C1.66599953364563,10.195000051498413,2.13799993364563,8.743000051498413,3.30200253364563,8.650000051498413C3.30200253364563,8.650000051498413,8.70600253364563,8.217000051498413,8.70600253364563,8.217000051498413C8.70600253364563,8.217000051498413,10.78800253364563,3.211000051498413,10.78800253364563,3.211000051498413C10.78800253364563,3.211000051498413,10.78800253364563,3.210000051498413,10.78800253364563,3.210000051498413Z" fill-rule="evenodd" fill="#FF912C" fill-opacity="1"/></g></g></g></svg>