<svg xmlns="http://www.w3.org/2000/svg" xmlns:xlink="http://www.w3.org/1999/xlink" fill="none" version="1.1" width="40.85748291015625" height="40.85748291015625" viewBox="0 0 40.85748291015625 40.85748291015625"><defs><clipPath id="master_svg0_0_172"><rect x="0" y="0" width="40.85748291015625" height="40.85748291015625" rx="0"/></clipPath></defs><g clip-path="url(#master_svg0_0_172)"><g><path d="M30.08454441833496,19.31154441833496C24.144104418334962,19.31154441833496,19.31154441833496,24.144104418334962,19.31154441833496,30.08454441833496C19.31154441833496,36.02494441833496,24.144104418334962,40.857444418334964,30.08454441833496,40.857444418334964C36.02494441833496,40.857444418334964,40.857444418334964,36.02494441833496,40.857444418334964,30.08454441833496C40.857444418334964,24.144104418334962,36.02494441833496,19.31154441833496,30.08454441833496,19.31154441833496ZM34.87254441833496,31.28154441833496C34.87254441833496,31.28154441833496,30.08454441833496,31.28154441833496,30.08454441833496,31.28154441833496C29.42304441833496,31.28154441833496,28.88751441833496,30.74594441833496,28.88751441833496,30.08454441833496C28.88751441833496,30.08454441833496,28.88751441833496,25.29652441833496,28.88751441833496,25.29652441833496C28.88751441833496,24.635064418334963,29.42304441833496,24.09953441833496,30.08454441833496,24.09953441833496C30.74594441833496,24.09953441833496,31.28154441833496,24.635064418334963,31.28154441833496,25.29652441833496C31.28154441833496,25.29652441833496,31.28154441833496,28.88751441833496,31.28154441833496,28.88751441833496C31.28154441833496,28.88751441833496,34.87254441833496,28.88751441833496,34.87254441833496,28.88751441833496C35.53394441833496,28.88751441833496,36.06944441833496,29.42304441833496,36.06944441833496,30.08454441833496C36.06944441833496,30.74594441833496,35.53394441833496,31.28154441833496,34.87254441833496,31.28154441833496Z" fill="#FF3811" fill-opacity="1"/></g><g><path d="M38.38369939117606,3.670792314529419C38.38369939117606,3.000283314529419,37.85719939117606,2.473792314529419,37.18669939117606,2.473792314529419C37.18669939117606,2.473792314529419,31.20169939117606,2.473792314529419,31.20169939117606,2.473792314529419C31.20169939117606,2.473792314529419,31.20169939117606,6.064782314529419,31.20169939117606,6.064782314529419C31.20169939117606,6.734972314529419,30.67519939117606,7.261782314529419,30.00469939117606,7.261782314529419C29.33419939117606,7.261782314529419,28.80769939117606,6.734972314529419,28.80769939117606,6.064782314529419C28.80769939117606,6.064782314529419,28.80769939117606,2.473792314529419,28.80769939117606,2.473792314529419C28.80769939117606,2.473792314529419,24.01969939117606,2.473792314529419,24.01969939117606,2.473792314529419C24.01969939117606,2.473792314529419,24.01969939117606,6.064782314529419,24.01969939117606,6.064782314529419C24.01969939117606,6.734972314529419,23.493199391176063,7.261782314529419,22.822699391176062,7.261782314529419C22.15219939117606,7.261782314529419,21.62569939117606,6.734972314529419,21.62569939117606,6.064782314529419C21.62569939117606,6.064782314529419,21.62569939117606,2.473792314529419,21.62569939117606,2.473792314529419C21.62569939117606,2.473792314529419,16.837799391176063,2.473792314529419,16.837799391176063,2.473792314529419C16.837799391176063,2.473792314529419,16.837799391176063,6.064782314529419,16.837799391176063,6.064782314529419C16.837799391176063,6.734972314529419,16.31129939117606,7.261782314529419,15.640799391176062,7.261782314529419C14.970299391176061,7.261782314529419,14.44379939117606,6.734972314529419,14.44379939117606,6.064782314529419C14.44379939117606,6.064782314529419,14.44379939117606,2.473792314529419,14.44379939117606,2.473792314529419C14.44379939117606,2.473792314529419,9.655769391176062,2.473792314529419,9.655769391176062,2.473792314529419C9.655769391176062,2.473792314529419,9.655769391176062,6.064782314529419,9.655769391176062,6.064782314529419C9.655769391176062,6.734972314529419,9.12927939117606,7.261782314529419,8.458779391176062,7.261782314529419C7.788269391176061,7.261782314529419,7.261779391176061,6.734972314529419,7.261779391176061,6.064782314529419C7.261779391176061,6.064782314529419,7.261779391176061,2.473792314529419,7.261779391176061,2.473792314529419C7.261779391176061,2.473792314529419,1.1969993911760612,2.473792314529419,1.1969993911760612,2.473792314529419C0.5264903911760612,2.473792314529419,-6.088239388191141e-7,3.000283314529419,-6.088239388191141e-7,3.670792314529419C-6.088239388191141e-7,3.670792314529419,-6.088239388191141e-7,9.655772314529418,-6.088239388191141e-7,9.655772314529418C-6.088239388191141e-7,9.655772314529418,38.38369939117606,9.655772314529418,38.38369939117606,9.655772314529418C38.38369939117606,9.655772314529418,38.38369939117606,3.670792314529419,38.38369939117606,3.670792314529419Z" fill="#FFFFFF" fill-opacity="1"/></g><g><path d="M18.034699391176062,24.019763679504393C18.034699391176062,24.019763679504393,18.32219939117606,24.019763679504393,18.32219939117606,24.019763679504393C18.75919939117606,23.170563679504394,19.252299391176063,22.355463679504396,19.85579939117606,21.625733679504393C19.85579939117606,21.625733679504393,18.034699391176062,21.625733679504393,18.034699391176062,21.625733679504393C17.37329939117606,21.625733679504393,16.837799391176063,21.090203679504395,16.837799391176063,20.428743679504393C16.837799391176063,19.767273679504395,17.37329939117606,19.231743679504394,18.034699391176062,19.231743679504394C18.034699391176062,19.231743679504394,20.42869939117606,19.231743679504394,20.42869939117606,19.231743679504394C20.91909939117606,19.231743679504394,21.337699391176063,19.527563679504397,21.52289939117606,19.949313679504392C23.81619939117606,18.011993679504393,26.77439939117606,16.837753679504395,30.00469939117606,16.837753679504395C30.00469939117606,16.837753679504395,27.610699391176063,16.837753679504395,27.610699391176063,16.837753679504395C26.949299391176062,16.837753679504395,26.41369939117606,16.302213679504394,26.41369939117606,15.640753679504394C26.41369939117606,14.979283679504395,26.949299391176062,14.443753679504395,27.610699391176063,14.443753679504395C27.610699391176063,14.443753679504395,30.00469939117606,14.443753679504395,30.00469939117606,14.443753679504395C30.66619939117606,14.443753679504395,31.20169939117606,14.979283679504395,31.20169939117606,15.640753679504394C31.20169939117606,16.302213679504394,30.66619939117606,16.837753679504395,30.00469939117606,16.837753679504395C33.18519939117606,16.837753679504395,36.10569939117606,17.971783679504394,38.38369939117606,19.855803679504394C38.38369939117606,19.855803679504394,38.38369939117606,12.049763679504395,38.38369939117606,12.049763679504395C38.38369939117606,12.049763679504395,-6.088239388191141e-7,12.049763679504395,-6.088239388191141e-7,12.049763679504395C-6.088239388191141e-7,12.049763679504395,-6.088239388191141e-7,34.79266367950439,-6.088239388191141e-7,34.79266367950439C-6.088239388191141e-7,35.45416367950439,0.5355303911760612,35.989663679504396,1.1969993911760612,35.989663679504396C1.1969993911760612,35.989663679504396,18.29129939117606,35.989663679504396,18.29129939117606,35.989663679504396C17.36889939117606,34.191663679504394,16.837799391176063,32.16056367950439,16.837799391176063,30.004663679504393C16.837799391176063,28.687063679504394,17.073999391176063,27.431463679504397,17.43589939117606,26.230463679504396C17.08459939117606,26.021863679504392,16.837799391176063,25.655263679504394,16.837799391176063,25.216763679504396C16.837799391176063,24.555263679504392,17.37329939117606,24.019763679504393,18.034699391176062,24.019763679504393ZM18.034699391176062,14.443753679504395C18.034699391176062,14.443753679504395,20.42869939117606,14.443753679504395,20.42869939117606,14.443753679504395C21.09019939117606,14.443753679504395,21.62569939117606,14.979283679504395,21.62569939117606,15.640753679504394C21.62569939117606,16.302213679504394,21.09019939117606,16.837753679504395,20.42869939117606,16.837753679504395C20.42869939117606,16.837753679504395,18.034699391176062,16.837753679504395,18.034699391176062,16.837753679504395C17.37329939117606,16.837753679504395,16.837799391176063,16.302213679504394,16.837799391176063,15.640753679504394C16.837799391176063,14.979283679504395,17.37329939117606,14.443753679504395,18.034699391176062,14.443753679504395ZM10.852799391176061,31.201663679504396C10.852799391176061,31.201663679504396,8.458779391176062,31.201663679504396,8.458779391176062,31.201663679504396C7.797309391176062,31.201663679504396,7.261779391176061,30.666163679504393,7.261779391176061,30.004663679504393C7.261779391176061,29.343263679504396,7.797309391176062,28.807763679504394,8.458779391176062,28.807763679504394C8.458779391176062,28.807763679504394,10.852799391176061,28.807763679504394,10.852799391176061,28.807763679504394C11.514199391176062,28.807763679504394,12.04979939117606,29.343263679504396,12.04979939117606,30.004663679504393C12.04979939117606,30.666163679504393,11.514199391176062,31.201663679504396,10.852799391176061,31.201663679504396ZM10.852799391176061,26.413763679504395C10.852799391176061,26.413763679504395,8.458779391176062,26.413763679504395,8.458779391176062,26.413763679504395C7.797309391176062,26.413763679504395,7.261779391176061,25.878163679504397,7.261779391176061,25.216763679504396C7.261779391176061,24.555263679504392,7.797309391176062,24.019763679504393,8.458779391176062,24.019763679504393C8.458779391176062,24.019763679504393,10.852799391176061,24.019763679504393,10.852799391176061,24.019763679504393C11.514199391176062,24.019763679504393,12.04979939117606,24.555263679504392,12.04979939117606,25.216763679504396C12.04979939117606,25.878163679504397,11.514199391176062,26.413763679504395,10.852799391176061,26.413763679504395ZM10.852799391176061,21.625733679504393C10.852799391176061,21.625733679504393,8.458779391176062,21.625733679504393,8.458779391176062,21.625733679504393C7.797309391176062,21.625733679504393,7.261779391176061,21.090203679504395,7.261779391176061,20.428743679504393C7.261779391176061,19.767273679504395,7.797309391176062,19.231743679504394,8.458779391176062,19.231743679504394C8.458779391176062,19.231743679504394,10.852799391176061,19.231743679504394,10.852799391176061,19.231743679504394C11.514199391176062,19.231743679504394,12.04979939117606,19.767273679504395,12.04979939117606,20.428743679504393C12.04979939117606,21.090203679504395,11.514199391176062,21.625733679504393,10.852799391176061,21.625733679504393ZM10.852799391176061,16.837753679504395C10.852799391176061,16.837753679504395,8.458779391176062,16.837753679504395,8.458779391176062,16.837753679504395C7.797309391176062,16.837753679504395,7.261779391176061,16.302213679504394,7.261779391176061,15.640753679504394C7.261779391176061,14.979283679504395,7.797309391176062,14.443753679504395,8.458779391176062,14.443753679504395C8.458779391176062,14.443753679504395,10.852799391176061,14.443753679504395,10.852799391176061,14.443753679504395C11.514199391176062,14.443753679504395,12.04979939117606,14.979283679504395,12.04979939117606,15.640753679504394C12.04979939117606,16.302213679504394,11.514199391176062,16.837753679504395,10.852799391176061,16.837753679504395Z" fill="#FFFFFF" fill-opacity="1"/></g><g><path d="M9.655768354644776,1.1969993911760612C9.655768354644776,0.5264903911760612,9.129278354644775,-6.088239388191141e-7,8.458778354644775,-6.088239388191141e-7C7.788269354644775,-6.088239388191141e-7,7.261778354644775,0.5264903911760612,7.261778354644775,1.1969993911760612C7.261778354644775,1.1969993911760612,7.261778354644775,2.4737893911760613,7.261778354644775,2.4737893911760613C7.261778354644775,2.4737893911760613,9.655768354644776,2.4737893911760613,9.655768354644776,2.4737893911760613C9.655768354644776,2.4737893911760613,9.655768354644776,1.1969993911760612,9.655768354644776,1.1969993911760612Z" fill="#FFFFFF" fill-opacity="1"/></g><g><path d="M16.83774705718994,1.1969993911760612C16.83774705718994,0.5264903911760612,16.31125705718994,-6.088239388191141e-7,15.64075705718994,-6.088239388191141e-7C14.970248057189941,-6.088239388191141e-7,14.443757057189941,0.5264903911760612,14.443757057189941,1.1969993911760612C14.443757057189941,1.1969993911760612,14.443757057189941,2.4737893911760613,14.443757057189941,2.4737893911760613C14.443757057189941,2.4737893911760613,16.83774705718994,2.4737893911760613,16.83774705718994,2.4737893911760613C16.83774705718994,2.4737893911760613,16.83774705718994,1.1969993911760612,16.83774705718994,1.1969993911760612Z" fill="#FFFFFF" fill-opacity="1"/></g><g><path d="M24.019728143920897,1.1969993911760612C24.019728143920897,0.5264903911760612,23.493238143920898,-6.088239388191141e-7,22.822738143920898,-6.088239388191141e-7C22.1522291439209,-6.088239388191141e-7,21.6257381439209,0.5264903911760612,21.6257381439209,1.1969993911760612C21.6257381439209,1.1969993911760612,21.6257381439209,2.4737893911760613,21.6257381439209,2.4737893911760613C21.6257381439209,2.4737893911760613,24.019728143920897,2.4737893911760613,24.019728143920897,2.4737893911760613C24.019728143920897,2.4737893911760613,24.019728143920897,1.1969993911760612,24.019728143920897,1.1969993911760612Z" fill="#FFFFFF" fill-opacity="1"/></g><g><path d="M31.201708276977538,1.1969993911760612C31.201708276977538,0.5264903911760612,30.67521827697754,-6.088239388191141e-7,30.00471827697754,-6.088239388191141e-7C29.33420927697754,-6.088239388191141e-7,28.80771827697754,0.5264903911760612,28.80771827697754,1.1969993911760612C28.80771827697754,1.1969993911760612,28.80771827697754,2.4737893911760613,28.80771827697754,2.4737893911760613C28.80771827697754,2.4737893911760613,31.201708276977538,2.4737893911760613,31.201708276977538,2.4737893911760613C31.201708276977538,2.4737893911760613,31.201708276977538,1.1969993911760612,31.201708276977538,1.1969993911760612Z" fill="#FFFFFF" fill-opacity="1"/></g></g></svg>