<svg xmlns="http://www.w3.org/2000/svg" xmlns:xlink="http://www.w3.org/1999/xlink" fill="none" version="1.1" width="53" height="53" viewBox="0 0 53 53"><g><g><g><g><path d="M45.2384,7.76171C40.2332,2.75652,33.5784,0,26.5,0C19.4216,0,12.7668,2.75652,7.7616,7.76171C2.75641,12.7669,0,19.4216,0,26.5C0,33.5784,2.75641,40.2332,7.7616,45.2383C12.7668,50.2434,19.4216,53,26.5,53C33.5784,53,40.2332,50.2435,45.2384,45.2383C50.2436,40.2331,53,33.5784,53,26.5C53,19.4216,50.2436,12.7668,45.2384,7.76171ZM26.5,47.7985C14.7558,47.7985,5.20145,38.2441,5.20145,26.5C5.20145,26.4807,5.20207,26.4617,5.20218,26.4427C5.20218,26.4378,5.20145,26.4331,5.20145,26.4283C5.20145,26.4201,5.20249,26.4122,5.2027,26.4041C5.25435,14.8008,14.6315,5.36045,26.2106,5.20518C26.2348,5.20404,26.2588,5.20156,26.2833,5.20156C26.298,5.20156,26.3123,5.20332,26.3269,5.20373C26.3847,5.20332,26.4422,5.20156,26.5001,5.20156C38.2443,5.20156,47.7986,14.756,47.7986,26.5001C47.7986,38.2442,38.2442,47.7985,26.5,47.7985Z" fill="#FFFFFF" fill-opacity="1"/></g></g></g><g><g><g><path d="M42.678144580078126,27.7793953125C41.812144580078126,27.7793953125,41.110044580078124,27.0772953125,41.110044580078124,26.2112953125C41.110044580078124,25.3452953125,41.812144580078126,24.6432953125,42.678144580078126,24.6432953125C42.678144580078126,24.6432953125,44.56824458007812,24.6432953125,44.56824458007812,24.6432953125C43.680444580078124,15.940095312499999,36.62214458007813,9.0359103125,27.851244580078124,8.3876953125C27.851244580078124,8.3876953125,27.851244580078124,10.0330753125,27.851244580078124,10.0330753125C27.851244580078124,10.8990853125,27.149244580078125,11.6011353125,26.283244580078126,11.6011353125C25.417244580078126,11.6011353125,24.715144580078125,10.8990853125,24.715144580078125,10.0330753125C24.715144580078125,10.0330753125,24.715144580078125,8.4251679125,24.715144580078125,8.4251679125C16.074094580078125,9.2719253125,9.191028580078125,16.199395312500002,8.412280580078125,24.8598953125C8.412280580078125,24.8598953125,10.104964580078125,24.8598953125,10.104964580078125,24.8598953125C10.970984580078126,24.8598953125,11.673024580078124,25.5619953125,11.673024580078124,26.4279953125C11.673024580078124,27.2939953125,10.970984580078126,27.9959953125,10.104964580078125,27.9959953125C10.104964580078125,27.9959953125,8.399444580078125,27.9959953125,8.399444580078125,27.9959953125C9.120430580078125,36.7959953125,16.141484580078124,43.8385953125,24.931944580078124,44.5938953125C24.931944580078124,44.5938953125,24.931944580078124,42.6060953125,24.931944580078124,42.6060953125C24.931944580078124,41.7400953125,25.633944580078126,41.0380953125,26.499944580078125,41.0380953125C27.365944580078125,41.0380953125,28.068044580078126,41.7400953125,28.068044580078126,42.6060953125C28.068044580078126,42.6060953125,28.068044580078126,44.5938953125,28.068044580078126,44.5938953125C36.930444580078124,43.8323953125,43.994244580078124,36.6800953125,44.61674458007813,27.7793953125C44.61674458007813,27.7793953125,42.678144580078126,27.7793953125,42.678144580078126,27.7793953125C42.678144580078126,27.7793953125,42.678144580078126,27.7793953125,42.678144580078126,27.7793953125ZM32.84754458007812,22.3698953125C32.84754458007812,22.3698953125,27.608844580078124,27.6086953125,27.608844580078124,27.6086953125C27.314744580078123,27.9027953125,26.916044580078125,28.0679953125,26.500044580078125,28.0679953125C26.084244580078124,28.0679953125,25.685344580078127,27.9027953125,25.391344580078126,27.6086953125C25.391344580078126,27.6086953125,16.272324580078127,18.4896953125,16.272324580078127,18.4896953125C15.659924580078126,17.8773853125,15.659924580078126,16.8845653125,16.272324580078127,16.2721653125C16.884624580078125,15.659775312499999,17.877444580078127,15.659775312499999,18.489844580078127,16.2721653125C18.489844580078127,16.2721653125,26.500144580078125,24.2823953125,26.500144580078125,24.2823953125C26.500144580078125,24.2823953125,30.630244580078124,20.152395312499998,30.630244580078124,20.152395312499998C31.242544580078125,19.5399953125,32.23534458007812,19.5399953125,32.84774458007813,20.152395312499998C33.45994458007813,20.7645953125,33.45994458007813,21.7575953125,32.84754458007812,22.3698953125Z" fill="#FFFFFF" fill-opacity="1"/></g></g></g></g></svg>